HIERARCHY
ROOT SpineBase
{
  OFFSET 0.000000 0.000000 0.000000
  CHANNELS 6 Xposition Yposition Zposition Zrotation Xrotation Yrotation
  JOINT SpineMid
  {
    OFFSET 0.000000 4.537366 0.000000
    CHANNELS 3 Zrotation Xrotation Yrotation
    JOINT SpineShoulder
    {
      OFFSET 0.177126 3.416674 -0.905482
      CHANNELS 3 Zrotation Xrotation Yrotation
      JOINT Neck
      {
        OFFSET 0.122232 1.097133 -0.557868
        CHANNELS 3 Zrotation Xrotation Yrotation
        JOINT Head
        {
          OFFSET 1.292313 13.446753 -1.161597
          CHANNELS 3 Zrotation Xrotation Yrotation
          End Site
          {
            OFFSET 0 0 0
          }
        }
      }
      JOINT ShoulderLeft
      {
        OFFSET -6.367227 -13.080531 9.451116
        CHANNELS 3 Zrotation Xrotation Yrotation
        JOINT ElbowLeft
        {
          OFFSET -12.156905 1.087239 14.858000
          CHANNELS 3 Zrotation Xrotation Yrotation
          JOINT WristLeft
          {
            OFFSET 15.654103 -9.317869 -19.337644
            CHANNELS 3 Zrotation Xrotation Yrotation
            JOINT HandLeft
            {
              OFFSET 5.153807 -2.242040 -7.128228
              CHANNELS 3 Zrotation Xrotation Yrotation
              JOINT HandTipLeft
              {
                OFFSET 4.911889 -2.603448 -5.799791
                CHANNELS 3 Zrotation Xrotation Yrotation
                End Site
                {
                  OFFSET 0 0 0
                }
              }
              JOINT ThumbLeft
              {
                OFFSET 2.114993 1.798536 -3.620417
                CHANNELS 3 Zrotation Xrotation Yrotation
                End Site
                {
                  OFFSET 0 0 0
                }
              }
            }
          }
        }
      }
      JOINT ShoulderRight
      {
        OFFSET -8.671578 151.123013 -57.400407
        CHANNELS 3 Zrotation Xrotation Yrotation
        JOINT ElbowRight
        {
          OFFSET 4.407105 -21.063443 1.445504
          CHANNELS 3 Zrotation Xrotation Yrotation
          JOINT WristRight
          {
            OFFSET -17.565819 9.543971 -11.887267
            CHANNELS 3 Zrotation Xrotation Yrotation
            JOINT HandRight
            {
              OFFSET -5.890168 3.350211 -3.689877
              CHANNELS 3 Zrotation Xrotation Yrotation
              JOINT HandTipRight
              {
                OFFSET -5.348932 3.251207 -2.546267
                CHANNELS 3 Zrotation Xrotation Yrotation
                End Site
                {
                  OFFSET 0 0 0
                }
              }
              JOINT ThumbRight
              {
                OFFSET -2.988611 -6.008315 0.517071
                CHANNELS 3 Zrotation Xrotation Yrotation
                End Site
                {
                  OFFSET 0 0 0
                }
              }
            }
          }
        }
      }
    }
  }
  JOINT HipLeft
  {
    OFFSET -0.545956 -1.421989 -4.116667
    CHANNELS 3 Zrotation Xrotation Yrotation
    JOINT KneeLeft
    {
      OFFSET 22.303597 -10.689040 4.759416
      CHANNELS 3 Zrotation Xrotation Yrotation
      JOINT AnkleLeft
      {
        OFFSET -3.377958 -28.760075 15.833327
        CHANNELS 3 Zrotation Xrotation Yrotation
        JOINT FootLeft
        {
          OFFSET -9.959200 -4.709456 -2.416983
          CHANNELS 3 Zrotation Xrotation Yrotation
          End Site
          {
            OFFSET 0 0 0
          }
        }
      }
    }
  }
  JOINT HipRight
  {
    OFFSET 1.194074 0.152374 -0.684586
    CHANNELS 3 Zrotation Xrotation Yrotation
    JOINT KneeRight
    {
      OFFSET 8.032616 -36.694551 5.698545
      CHANNELS 3 Zrotation Xrotation Yrotation
      JOINT AnkleRight
      {
        OFFSET 4.204070 -27.947001 18.193700
        CHANNELS 3 Zrotation Xrotation Yrotation
        JOINT FootRight
        {
          OFFSET -7.506073 -5.072863 -1.731382
          CHANNELS 3 Zrotation Xrotation Yrotation
          End Site
          {
            OFFSET 0 0 0
          }
        }
      }
    }
  }
}
MOTION
Frames: 9
Frame Time: 0.033333
-39.085179 101.925033 394.678147 -0.000000 0.000000 -63.115463 -0.000000 0.000000 63.115463 -0.000000 0.000000 0.000000 -0.000000 0.000000 0.000000 0.000000 0.000000 0.000000 -0.000000 0.000000 0.000000 -0.000000 0.000000 0.000000 -0.000000 0.000000 0.000000 -0.000000 0.000000 0.000000 0.000000 0.000000 0.000000 0.000000 0.000000 0.000000 -0.000000 0.000000 0.000000 -0.000000 0.000000 0.000000 -0.000000 0.000000 0.000000 -0.000000 0.000000 0.000000 0.000000 0.000000 0.000000 0.000000 0.000000 0.000000 -0.000000 0.000000 63.115463 -0.000000 0.000000 0.000000 -0.000000 0.000000 0.000000 0.000000 0.000000 0.000000 -0.000000 0.000000 63.115463 -0.000000 0.000000 0.000000 -0.000000 0.000000 0.000000 0.000000 0.000000 0.000000
-39.216706 102.533214 394.739134 -1.477342 -0.153480 -44.050132 -1.452756 3.609628 43.955866 1.104879 -0.387762 0.439266 -2.442767 -4.303549 -0.328609 0.000000 0.000000 0.000000 7.155090 7.507745 1.577193 -4.196583 -4.771252 -1.621986 -3.287050 -3.571731 0.734359 -2.361917 -3.693477 -1.992364 0.000000 0.000000 0.000000 0.000000 0.000000 0.000000 -1.108506 -3.053409 -0.249303 -0.000000 0.000000 0.000000 -0.000000 0.000000 0.000000 -0.000000 0.000000 0.000000 0.000000 0.000000 0.000000 0.000000 0.000000 0.000000 -4.013479 0.329280 48.656858 5.768878 0.529246 -3.975408 -13.798888 1.011973 -3.728510 0.000000 0.000000 0.000000 1.679744 0.440872 43.814843 -0.040421 1.004151 0.214204 -0.177955 -0.432993 0.700031 0.000000 0.000000 0.000000
-39.356545 103.083731 394.868486 -2.921588 -0.160035 8.375335 3.664004 5.942967 -8.783347 2.061239 -0.746477 0.859652 -4.548725 -7.982506 -0.739138 0.000000 0.000000 0.000000 21.825784 24.733085 1.064722 -16.305420 -17.701439 -6.977231 -6.544653 -6.659751 1.638428 -4.905785 -7.352449 -4.298657 0.000000 0.000000 0.000000 0.000000 0.000000 0.000000 -1.935204 -5.477331 -0.454082 -0.000000 0.000000 0.000000 -0.000000 0.000000 0.000000 -0.000000 0.000000 0.000000 0.000000 0.000000 0.000000 0.000000 0.000000 0.000000 -4.909851 5.846834 -0.147660 11.414047 0.506085 -6.579209 -27.074986 4.529074 -8.238002 0.000000 0.000000 0.000000 2.727784 -1.934920 -8.733311 -0.069403 1.676571 0.358133 -0.317078 -0.897353 1.431425 0.000000 0.000000 0.000000
-39.504694 103.576583 395.066202 -4.253421 0.030676 53.978154 8.727119 1.747338 -54.376731 2.818310 -1.037417 1.187439 -6.192043 -10.795338 -1.092966 0.000000 0.000000 0.000000 47.027972 46.011751 -10.009183 -37.198893 -33.453460 -19.516412 -9.329252 -8.730188 2.797555 -7.525404 -10.781539 -6.710420 0.000000 0.000000 0.000000 0.000000 0.000000 0.000000 -2.362453 -7.023137 -0.544732 -0.000000 0.000000 0.000000 -0.000000 0.000000 0.000000 -0.000000 0.000000 0.000000 0.000000 0.000000 0.000000 0.000000 0.000000 0.000000 -0.298221 10.893014 -44.000722 16.779796 0.493360 -7.751547 -37.844500 9.519851 -12.559146 0.000000 0.000000 0.000000 0.885500 -4.699838 -54.445143 -0.084399 2.016368 0.431062 -0.416318 -1.395013 2.198305 0.000000 0.000000 0.000000
-39.661153 104.011772 395.332282 -5.369769 0.471988 69.280257 9.203629 -1.031971 -69.530473 3.328431 -1.198929 1.343595 -7.223961 -12.506257 -1.237263 0.000000 0.000000 0.000000 75.721873 55.957536 -30.781981 -54.621972 -41.377269 -31.667851 -11.223604 -9.583964 4.048686 -9.783243 -13.497065 -8.560407 0.000000 0.000000 0.000000 0.000000 0.000000 0.000000 -2.272011 -7.439085 -0.457061 -0.000000 0.000000 0.000000 -0.000000 0.000000 0.000000 -0.000000 0.000000 0.000000 0.000000 0.000000 0.000000 0.000000 0.000000 0.000000 1.581633 13.946284 -59.108066 21.781700 0.926425 -7.558963 -45.060264 14.687580 -16.401947 0.000000 0.000000 0.000000 -0.413975 -5.968927 -69.805525 -0.084128 2.023417 0.432657 -0.474127 -1.928127 3.005242 0.000000 0.000000 0.000000
-39.825924 104.389297 395.666725 -6.148443 1.212984 70.300530 7.491152 -1.699986 -70.672491 3.541518 -1.133168 1.258635 -7.500528 -12.891470 -1.036130 0.000000 0.000000 0.000000 95.261921 57.034119 -47.203523 -63.230880 -44.730529 -37.694513 -12.070494 -9.841360 4.613690 -10.569307 -14.423169 -8.332862 0.000000 0.000000 0.000000 0.000000 0.000000 0.000000 -1.564534 -6.480843 -0.156611 -0.000000 0.000000 0.000000 -0.000000 0.000000 0.000000 -0.000000 0.000000 0.000000 0.000000 0.000000 0.000000 0.000000 0.000000 0.000000 0.033932 17.302749 -61.207646 26.313678 2.122504 -6.123624 -48.713586 19.219280 -19.958664 0.000000 0.000000 0.000000 -0.650691 -6.823762 -70.726750 -0.068574 1.697996 0.362975 -0.488408 -2.499076 3.857326 0.000000 0.000000 0.000000
-39.886314 104.710976 395.683740 -6.098060 4.072767 -92.198119 0.904169 1.859638 91.113808 3.502155 0.130328 0.643863 -5.541476 -10.592167 0.170541 0.000000 0.000000 0.000000 105.794621 53.364921 -58.690508 -61.713163 -48.261298 -35.124841 -8.071812 -9.316723 -2.293721 -10.998956 -13.956068 3.814290 0.000000 0.000000 0.000000 0.000000 0.000000 0.000000 0.803486 -3.138324 0.770165 -0.000000 0.000000 0.000000 -0.000000 0.000000 0.000000 -0.000000 0.000000 0.000000 0.000000 0.000000 0.000000 0.000000 0.000000 0.000000 -1.165535 -22.424116 90.737140 31.331051 8.159672 2.229933 -45.762172 25.833921 -27.235330 0.000000 0.000000 0.000000 3.835526 6.249657 92.205680 -0.000000 0.000000 0.000000 -0.482483 -3.644557 5.565220 0.000000 0.000000 0.000000
-39.825238 104.897037 396.154726 -1.925430 6.316892 -90.668073 5.533625 -0.268656 90.035999 1.003154 -0.545285 -0.026395 -6.114008 -9.457665 0.283892 0.000000 0.000000 0.000000 107.927067 51.473060 -62.607345 -61.809878 -50.318114 -35.964376 -5.245485 -14.895922 -15.594696 -9.460834 0.921421 26.443231 0.000000 0.000000 0.000000 0.000000 0.000000 0.000000 1.264003 -0.215744 0.669334 -0.000000 0.000000 0.000000 -0.000000 0.000000 0.000000 -0.000000 0.000000 0.000000 0.000000 0.000000 0.000000 0.000000 0.000000 0.000000 0.826798 -29.697082 81.596742 32.634578 13.481470 7.631880 -42.783942 27.564162 -31.144252 0.000000 0.000000 0.000000 5.419362 1.909542 90.873845 0.076152 -0.875512 -0.179011 -0.705060 -2.544931 3.983539 0.000000 0.000000 0.000000
-41.381884 104.259604 398.907119 -8.705205 -1.551109 -94.111617 5.492632 1.174934 91.813702 3.081586 0.604538 -0.122376 -3.998261 -5.395019 1.838095 0.000000 0.000000 0.000000 113.506589 50.900399 -68.798275 -63.030598 -51.011230 -37.642830 -9.579908 -17.539023 -13.077974 3.003234 28.723266 21.888971 0.000000 0.000000 0.000000 0.000000 0.000000 0.000000 4.606169 6.749842 1.365753 -0.000000 0.000000 0.000000 -0.000000 0.000000 0.000000 -0.000000 0.000000 0.000000 0.000000 0.000000 0.000000 0.000000 0.000000 0.000000 -4.613394 -22.314911 83.773664 27.803983 15.369854 8.091455 -35.921623 26.437681 -33.224221 0.000000 0.000000 0.000000 -4.606828 8.496443 95.061827 -0.129938 -2.401879 -0.547113 -0.290172 -5.534705 8.372842 0.000000 0.000000 0.000000
